<svg width="1440" height="957" viewBox="0 0 1440 957" fill="none" xmlns="http://www.w3.org/2000/svg">
<path d="M139.895 703.934C58.666 703.934 -21.8805 651.752 -52 625.661L-45.4793 -117H1499V667.593C1370.82 641.502 1303.38 700.828 1285.68 733.752C1227.15 822.79 1123.9 842.154 1064.91 833.457C980.137 814.82 896.299 942.48 779.858 953.662C523.89 978.242 623.36 859.548 412.834 843.707C202.308 827.866 241.432 703.934 139.895 703.934Z" fill="url(#paint0_linear_13_4)"/>
<path opacity="0.3" d="M597 294.49H54C64.3333 294.49 89 293.79 105 290.99C121 288.191 121.333 289.824 119.5 290.99L139 280.99C146.5 275.324 163.4 263.19 171 259.99C180.5 255.99 183.5 269.49 184.5 273.49C185.5 277.49 189.5 282.49 217.5 277.99C245.5 273.49 227 277.99 230.5 277.99C234 277.99 243 282.99 246 285.99C248.4 288.39 256 290.324 259.5 290.99L276 285.99C276.167 283.324 276.4 276.29 276 269.49C275.5 260.99 303 256.99 303 259.99C303 262.99 311 273.49 312.5 269.49C314 265.49 328 265.49 336 273.49C337 278.99 339 279.99 345.5 277.99C350.7 276.39 352 282.657 352 285.99L597 294.49Z" fill="url(#paint1_linear_13_4)"/>
<path opacity="0.3" d="M1259 365H937C943.128 365 957.755 364.586 967.243 362.929C976.731 361.272 976.929 362.239 975.842 362.929L987.405 357.012C991.853 353.659 1001.87 346.48 1006.38 344.586C1012.01 342.219 1013.79 350.207 1014.39 352.574C1014.98 354.941 1017.35 357.9 1033.96 355.237C1050.56 352.574 1039.59 355.237 1041.66 355.237C1043.74 355.237 1049.08 358.195 1050.86 359.97C1052.28 361.391 1056.79 362.535 1058.86 362.929L1068.65 359.97C1068.75 358.393 1068.88 354.231 1068.65 350.207C1068.35 345.178 1084.66 342.811 1084.66 344.586C1084.66 346.361 1089.4 352.574 1090.29 350.207C1091.18 347.84 1099.48 347.84 1104.23 352.574C1104.82 355.829 1106.01 356.42 1109.86 355.237C1112.94 354.29 1113.71 357.998 1113.71 359.97L1259 365Z" fill="url(#paint2_linear_13_4)"/>
<path opacity="0.3" d="M1216 539H679C689.219 539 713.613 538.31 729.436 535.548C745.26 532.787 745.589 534.398 743.776 535.548L763.061 525.687C770.478 520.098 787.191 508.133 794.707 504.977C804.102 501.032 807.069 514.345 808.058 518.29C809.047 522.235 813.003 527.166 840.693 522.728C868.384 518.29 850.088 522.728 853.55 522.728C857.011 522.728 865.912 527.659 868.878 530.617C871.252 532.984 878.768 534.891 882.229 535.548L898.547 530.617C898.712 527.988 898.943 521.051 898.547 514.345C898.052 505.963 925.249 502.018 925.249 504.977C925.249 507.935 933.16 518.29 934.644 514.345C936.127 510.401 949.972 510.401 957.884 518.29C958.873 523.714 960.851 524.7 967.279 522.728C972.422 521.15 973.707 527.33 973.707 530.617L1216 539Z" fill="url(#paint3_linear_13_4)"/>
<path opacity="0.3" d="M1473 164.49H930C940.333 164.49 965 163.79 981 160.99C997 158.191 997.333 159.824 995.5 160.99L1015 150.99C1022.5 145.324 1039.4 133.19 1047 129.99C1056.5 125.99 1059.5 139.49 1060.5 143.49C1061.5 147.49 1065.5 152.49 1093.5 147.99C1121.5 143.49 1103 147.99 1106.5 147.99C1110 147.99 1119 152.99 1122 155.99C1124.4 158.39 1132 160.324 1135.5 160.99L1152 155.99C1152.17 153.324 1152.4 146.29 1152 139.49C1151.5 130.99 1179 126.99 1179 129.99C1179 132.99 1187 143.49 1188.5 139.49C1190 135.49 1204 135.49 1212 143.49C1213 148.99 1215 149.99 1221.5 147.99C1226.7 146.39 1228 152.657 1228 155.99L1473 164.49Z" fill="url(#paint4_linear_13_4)"/>
<path opacity="0.3" d="M711 140H389C395.128 140 409.755 139.586 419.243 137.929C428.731 136.272 428.929 137.239 427.842 137.929L439.405 132.012C443.853 128.659 453.874 121.48 458.381 119.586C464.015 117.219 465.794 125.207 466.387 127.574C466.98 129.941 469.352 132.9 485.956 130.237C502.56 127.574 491.589 130.237 493.665 130.237C495.74 130.237 501.077 133.195 502.856 134.97C504.28 136.391 508.786 137.535 510.862 137.929L520.646 134.97C520.745 133.393 520.884 129.231 520.646 125.207C520.35 120.178 536.657 117.811 536.657 119.586C536.657 121.361 541.401 127.574 542.291 125.207C543.18 122.84 551.482 122.84 556.227 127.574C556.82 130.829 558.006 131.42 561.86 130.237C564.944 129.29 565.715 132.998 565.715 134.97L711 140Z" fill="url(#paint5_linear_13_4)"/>
<defs>
<linearGradient id="paint0_linear_13_4" x1="723.5" y1="-117" x2="723.5" y2="957" gradientUnits="userSpaceOnUse">
<stop stop-color="#5BDBC2"/>
<stop offset="1" stop-color="#42AAAB"/>
</linearGradient>
<linearGradient id="paint1_linear_13_4" x1="325.5" y1="259" x2="325.5" y2="294.49" gradientUnits="userSpaceOnUse">
<stop stop-color="white"/>
<stop offset="1" stop-color="white" stop-opacity="0"/>
</linearGradient>
<linearGradient id="paint2_linear_13_4" x1="1098" y1="344" x2="1098" y2="365" gradientUnits="userSpaceOnUse">
<stop stop-color="white"/>
<stop offset="1" stop-color="white" stop-opacity="0"/>
</linearGradient>
<linearGradient id="paint3_linear_13_4" x1="947.5" y1="504" x2="947.5" y2="539" gradientUnits="userSpaceOnUse">
<stop stop-color="white"/>
<stop offset="1" stop-color="white" stop-opacity="0"/>
</linearGradient>
<linearGradient id="paint4_linear_13_4" x1="1201.5" y1="129" x2="1201.5" y2="164.49" gradientUnits="userSpaceOnUse">
<stop stop-color="white"/>
<stop offset="1" stop-color="white" stop-opacity="0"/>
</linearGradient>
<linearGradient id="paint5_linear_13_4" x1="550" y1="119" x2="550" y2="140" gradientUnits="userSpaceOnUse">
<stop stop-color="white"/>
<stop offset="1" stop-color="white" stop-opacity="0"/>
</linearGradient>
</defs>
</svg>
